<svg width="1728" height="1728" viewBox="0 0 1728 1728" fill="none" xmlns="http://www.w3.org/2000/svg">
<path d="M851.172 3.07129C859.64 1.38006 868.36 1.38006 876.828 3.07129L899.278 7.55566C905.583 8.8147 912.036 9.15271 918.438 8.55957L941.234 6.44727C949.833 5.65056 958.504 6.56182 966.749 9.12891L988.607 15.9346C994.746 17.8458 1001.13 18.8573 1007.56 18.9365L1030.45 19.2178C1039.08 19.3242 1047.61 21.1368 1055.54 24.5518L1076.57 33.6055C1082.48 36.1478 1088.72 37.8206 1095.1 38.5713L1117.84 41.2441C1126.42 42.2526 1134.71 44.9476 1142.24 49.1729L1162.21 60.374C1167.81 63.5197 1173.85 65.836 1180.12 67.25L1202.45 72.2852C1210.88 74.1845 1218.84 77.7313 1225.89 82.7207L1244.58 95.9482C1249.82 99.6627 1255.58 102.596 1261.67 104.658L1283.35 112C1291.53 114.769 1299.09 119.129 1305.57 124.828L1322.77 139.937C1327.6 144.179 1333.02 147.699 1338.87 150.386L1359.66 159.954C1367.51 163.563 1374.56 168.688 1380.42 175.034L1395.95 191.857C1400.31 196.582 1405.33 200.649 1410.86 203.932L1430.54 215.622C1437.96 220.032 1444.44 225.866 1449.61 232.789L1463.29 251.144C1467.13 256.298 1471.7 260.867 1476.86 264.71L1495.21 278.394C1502.13 283.555 1507.97 290.035 1512.38 297.46L1524.07 317.144C1527.35 322.671 1531.42 327.693 1536.14 332.054L1552.97 347.581C1559.31 353.438 1564.44 360.492 1568.05 368.337L1577.61 389.135C1580.3 394.975 1583.82 400.395 1588.06 405.226L1603.17 422.427C1608.87 428.915 1613.23 436.466 1616 444.646L1623.34 466.329C1625.4 472.418 1628.34 478.178 1632.05 483.425L1645.28 502.11C1650.27 509.159 1653.82 517.124 1655.71 525.548L1660.75 547.881C1662.16 554.152 1664.48 560.185 1667.63 565.792L1678.83 585.759C1683.05 593.29 1685.75 601.583 1686.76 610.159L1689.43 632.896C1690.18 639.28 1691.85 645.523 1694.39 651.428L1703.45 672.455C1706.86 680.387 1708.68 688.916 1708.78 697.551L1709.06 720.442C1709.14 726.871 1710.15 733.254 1712.07 739.393L1718.87 761.251C1721.44 769.496 1722.35 778.167 1721.55 786.766L1719.44 809.562C1718.85 815.964 1719.19 822.417 1720.44 828.722L1724.93 851.172C1726.62 859.64 1726.62 868.36 1724.93 876.828L1720.44 899.278C1719.19 905.583 1718.85 912.036 1719.44 918.438L1721.55 941.234C1722.35 949.833 1721.44 958.504 1718.87 966.749L1712.07 988.607C1710.15 994.746 1709.14 1001.13 1709.06 1007.56L1708.78 1030.45C1708.68 1039.08 1706.86 1047.61 1703.45 1055.54L1694.39 1076.57C1691.85 1082.48 1690.18 1088.72 1689.43 1095.1L1686.76 1117.84C1685.75 1126.42 1683.05 1134.71 1678.83 1142.24L1667.63 1162.21C1664.48 1167.81 1662.16 1173.85 1660.75 1180.12L1655.71 1202.45C1653.82 1210.88 1650.27 1218.84 1645.28 1225.89L1632.05 1244.58C1628.34 1249.82 1625.4 1255.58 1623.34 1261.67L1616 1283.35C1613.23 1291.53 1608.87 1299.09 1603.17 1305.57L1588.06 1322.77C1583.82 1327.6 1580.3 1333.02 1577.61 1338.87L1568.05 1359.66C1564.44 1367.51 1559.31 1374.56 1552.97 1380.42L1536.14 1395.95C1531.42 1400.31 1527.35 1405.33 1524.07 1410.86L1512.38 1430.54C1507.97 1437.96 1502.13 1444.44 1495.21 1449.61L1476.86 1463.29C1471.7 1467.13 1467.13 1471.7 1463.29 1476.86L1449.61 1495.21C1444.44 1502.13 1437.96 1507.97 1430.54 1512.38L1410.86 1524.07C1405.33 1527.35 1400.31 1531.42 1395.95 1536.14L1380.42 1552.97C1374.56 1559.31 1367.51 1564.44 1359.66 1568.05L1338.87 1577.61C1333.02 1580.3 1327.6 1583.82 1322.77 1588.06L1305.57 1603.17C1299.09 1608.87 1291.53 1613.23 1283.35 1616L1261.67 1623.34C1255.58 1625.4 1249.82 1628.34 1244.58 1632.05L1225.89 1645.28C1218.84 1650.27 1210.88 1653.82 1202.45 1655.71L1180.12 1660.75C1173.85 1662.16 1167.81 1664.48 1162.21 1667.63L1142.24 1678.83C1134.71 1683.05 1126.42 1685.75 1117.84 1686.76L1095.1 1689.43C1088.72 1690.18 1082.48 1691.85 1076.57 1694.39L1055.54 1703.45C1047.61 1706.86 1039.08 1708.68 1030.45 1708.78L1007.56 1709.06C1001.13 1709.14 994.746 1710.15 988.607 1712.07L966.749 1718.87C958.504 1721.44 949.833 1722.35 941.234 1721.55L918.438 1719.44C912.036 1718.85 905.583 1719.19 899.278 1720.44L876.828 1724.93C868.36 1726.62 859.64 1726.62 851.172 1724.93L828.722 1720.44C822.417 1719.19 815.964 1718.85 809.562 1719.44L786.766 1721.55C778.167 1722.35 769.496 1721.44 761.251 1718.87L739.393 1712.07C733.254 1710.15 726.871 1709.14 720.442 1709.06L697.551 1708.78C688.916 1708.68 680.387 1706.86 672.455 1703.45L651.428 1694.39C645.523 1691.85 639.28 1690.18 632.896 1689.43L610.158 1686.76C601.582 1685.75 593.29 1683.05 585.759 1678.83L565.792 1667.63C560.185 1664.48 554.152 1662.16 547.881 1660.75L525.548 1655.71C517.124 1653.82 509.159 1650.27 502.11 1645.28L483.425 1632.05C478.178 1628.34 472.418 1625.4 466.329 1623.34L444.646 1616C436.466 1613.23 428.915 1608.87 422.427 1603.17L405.226 1588.06C400.395 1583.82 394.975 1580.3 389.135 1577.61L368.337 1568.05C360.492 1564.44 353.438 1559.31 347.581 1552.97L332.054 1536.14C327.693 1531.42 322.671 1527.35 317.144 1524.07L297.46 1512.38C290.035 1507.97 283.555 1502.13 278.394 1495.21L264.71 1476.86C260.867 1471.7 256.298 1467.13 251.144 1463.29L232.789 1449.61C225.866 1444.44 220.032 1437.96 215.622 1430.54L203.932 1410.86C200.649 1405.33 196.582 1400.31 191.857 1395.95L175.034 1380.42C168.688 1374.56 163.563 1367.51 159.954 1359.66L150.386 1338.87C147.699 1333.02 144.179 1327.6 139.937 1322.77L124.828 1305.57C119.129 1299.09 114.769 1291.53 112 1283.35L104.658 1261.67C102.596 1255.58 99.6627 1249.82 95.9482 1244.58L82.7207 1225.89C77.7313 1218.84 74.1845 1210.88 72.2852 1202.45L67.25 1180.12C65.836 1173.85 63.5197 1167.81 60.374 1162.21L49.1729 1142.24C44.9476 1134.71 42.2526 1126.42 41.2441 1117.84L38.5713 1095.1C37.8206 1088.72 36.1478 1082.48 33.6055 1076.57L24.5518 1055.54C21.1368 1047.61 19.3242 1039.08 19.2178 1030.45L18.9365 1007.56C18.8573 1001.13 17.8458 994.746 15.9346 988.607L9.12891 966.749C6.56183 958.504 5.65056 949.833 6.44727 941.234L8.55957 918.438C9.15271 912.036 8.8147 905.583 7.55566 899.278L3.07129 876.828C1.38006 868.36 1.38006 859.64 3.07129 851.172L7.55566 828.722C8.8147 822.417 9.15271 815.964 8.55957 809.562L6.44727 786.766C5.65056 778.167 6.56182 769.496 9.12891 761.251L15.9346 739.393C17.8458 733.254 18.8573 726.871 18.9365 720.442L19.2178 697.551C19.3242 688.916 21.1368 680.387 24.5518 672.455L33.6055 651.428C36.1478 645.523 37.8206 639.28 38.5713 632.896L41.2441 610.158C42.2526 601.582 44.9476 593.29 49.1729 585.759L60.374 565.793C63.5197 560.186 65.836 554.152 67.25 547.881L72.2852 525.548C74.1845 517.124 77.7313 509.159 82.7207 502.11L95.9482 483.425C99.6627 478.178 102.596 472.418 104.658 466.329L112 444.646C114.769 436.466 119.129 428.915 124.828 422.427L139.937 405.226C144.179 400.395 147.699 394.975 150.386 389.135L159.954 368.337C163.563 360.492 168.688 353.438 175.034 347.581L191.857 332.054C196.582 327.693 200.649 322.671 203.932 317.144L215.622 297.46C220.032 290.035 225.866 283.555 232.789 278.394L251.144 264.71C256.298 260.867 260.867 256.298 264.71 251.144L278.394 232.789C283.555 225.866 290.035 220.032 297.46 215.622L317.144 203.932C322.671 200.649 327.693 196.582 332.054 191.857L347.581 175.034C353.438 168.688 360.492 163.563 368.337 159.954L389.135 150.386C394.975 147.699 400.395 144.179 405.226 139.937L422.427 124.828C428.915 119.129 436.466 114.769 444.646 112L466.329 104.658C472.418 102.596 478.178 99.6627 483.425 95.9482L502.11 82.7207C509.159 77.7313 517.124 74.1845 525.548 72.2852L547.881 67.25C554.152 65.836 560.186 63.5197 565.793 60.374L585.759 49.1729C593.29 44.9476 601.582 42.2526 610.158 41.2441L632.896 38.5713C639.28 37.8206 645.523 36.1478 651.428 33.6055L672.455 24.5518C680.387 21.1368 688.916 19.3242 697.551 19.2178L720.442 18.9365C726.871 18.8573 733.254 17.8458 739.393 15.9346L761.251 9.12891C769.496 6.56183 778.167 5.65056 786.766 6.44727L809.562 8.55957C815.964 9.15271 822.417 8.8147 828.722 7.55566L851.172 3.07129Z" fill="url(#paint0_radial_240_1388)" stroke="black"/>
<path d="M441.655 1499.47C465.446 1510.98 487.52 1525.57 510.619 1538.32C537.088 1552.93 565.509 1565.71 593.643 1576.83C609.527 1583.1 626.429 1587.5 642.79 1592.46C664.118 1598.92 685.398 1605.95 707.239 1610.49C774.243 1624.44 850.35 1624.92 918.312 1621.26C942.763 1619.94 967.564 1619.26 991.775 1615.51C1030.35 1609.55 1080.86 1595.79 1117.97 1583.02C1219.22 1548.19 1359.89 1461.83 1428.26 1378.61L1430.17 1380.08C1430.28 1387.24 1431.37 1388.45 1425.73 1393.86C1383.31 1434.57 1337.38 1479.51 1287.42 1511.01C1165.78 1587.72 1018.69 1635.75 874.962 1636.93C821.079 1637.66 767.265 1632.79 714.396 1622.38C686.386 1616.74 667.018 1608.87 640.271 1601.39C574.887 1583.1 485.994 1545.02 430.97 1503.94C428.277 1492.83 395.385 1481.37 393.561 1469.1L395.587 1467.18C402.278 1473.26 435.619 1498.05 441.655 1499.47Z" fill="#3C3D3B"/>
<path d="M199.234 470.113C260.904 369.787 343.148 283.683 440.541 217.483C456.373 206.856 471.572 199.259 487.92 190.002C833.637 -5.79756 1281.58 100.168 1504.36 433.194C1506.41 437.866 1507.74 440.992 1509.33 445.893L1507.36 447.251L1503.33 445.036C1388.78 259.418 1175.9 133.774 961.47 105.644C785.832 84.1992 608.123 123.106 457.509 215.978C368.973 270.481 294.853 344.5 234.478 428.678C228.927 436.418 203.229 475.21 200.34 483.856C201.268 478.595 200.259 475.271 199.234 470.113Z" fill="#959592"/>
<path d="M430.896 1503.53C406.37 1489.74 367.903 1455.92 346.838 1436.4C331.797 1422.47 242.245 1332.7 240.876 1321.47C246.095 1323.08 263.823 1350.69 273.023 1358.02L277.343 1357.24C273.633 1346.19 242.916 1313.57 241.623 1302.8C243.71 1303.23 272.202 1345.2 277.327 1351.71C323.597 1410.48 388.034 1450.09 441.608 1499.07C435.556 1497.65 402.129 1472.87 395.42 1466.8L393.389 1468.72C395.218 1480.98 428.196 1492.43 430.896 1503.53Z" fill="#2D2E2D"/>
<path d="M1505.03 433.673C1532.78 464.25 1555.62 514.714 1575.78 551.285C1581.76 562.133 1612.4 646.436 1611.83 655.59L1610.54 656.255C1604.15 651.189 1606.87 642.369 1604.07 635.822C1597.34 620.084 1579.8 555.699 1569.8 546.718C1567.49 547.929 1567.32 548.112 1565.33 549.808C1563.6 562.725 1605.05 657.753 1602.98 671.776C1597.39 667.828 1582.74 610.977 1578.97 600.562C1560.59 549.779 1531.74 491.452 1504 445.513L1508.04 447.728L1510.02 446.37C1508.42 441.47 1507.09 438.345 1505.03 433.673Z" fill="#3A3C37"/>
<path d="M164 536.442C176.003 513.51 185.496 492.026 199.893 469.976C200.921 475.132 201.934 478.455 201.003 483.715C190.091 502.76 179.979 523.048 169.273 541.514L164 536.442Z" fill="#3C3D3B"/>
<path d="M1440.67 1413.53C1443.88 1413.49 1442.27 1413.31 1445.65 1415.16C1444.43 1419.76 1410.26 1451.95 1403.48 1458.52C1331.23 1528.6 1234 1587.34 1139.54 1621.56C1097.08 1636.94 1040.16 1650.81 996.325 1660.92C991.96 1661.56 993.643 1661.91 989.85 1660.01L989.059 1656.2C990.102 1653.86 991.744 1649.81 995.039 1649.17C1023.61 1643.58 1059.27 1635.51 1086.83 1627.27C1194.95 1594.97 1296.14 1543.73 1381.42 1469.4C1401.63 1451.79 1420.57 1431.72 1440.67 1413.53Z" fill="#2D2E2D"/>
<path d="M588.171 95.9723C605.601 85.0124 655.201 73.9283 675.3 72.6602L677.09 79.4534C649.74 89.7155 609.363 99.2756 577.444 110.488L576.389 111.075C569.393 114.909 560.128 118.506 552.668 121.362C401.174 179.364 274.048 289.638 184.122 423.82C181.64 427.525 178.359 432.323 176.302 436.28L172.981 431.25L173.587 430.085C180.793 416.513 197.477 394.852 207.217 381.612C292.863 266.159 406.832 174.873 538.056 116.619C550.688 111.149 575.905 99.6802 588.171 95.9723Z" fill="#666867"/>
<path d="M587.675 96.2147C605.201 85.1408 655.079 73.9415 675.29 72.6602L677.09 79.524C649.588 89.8927 608.984 99.5522 576.888 110.882C581.186 102.143 607.151 100.426 614.205 94.6644C602.148 87.9154 600.043 95.5018 587.675 96.2147Z" fill="#3C3D3B"/>
<path d="M1527.26 417.686C1524.86 414.744 1521.69 409.968 1519.59 406.637C1500.32 376.044 1477.28 350.325 1453.17 323.34C1340.69 197.929 1191.1 111.588 1026.14 76.8512C1017.44 75.0103 1002.95 77.0577 998.356 70.4022L999.08 67.8562C1001.43 66.3161 1006.52 66.2433 1009.31 66.7261C1226.06 104.257 1392.68 227.12 1525.75 397.718L1521.43 399.537C1519.72 406.565 1524.69 408.695 1527.26 417.686Z" fill="#676761"/>
<path d="M775.481 1659.47C780.693 1660.71 827.154 1656.13 838.288 1656.27C875.402 1656.7 915.76 1656.1 952.75 1658.06C960.509 1657.44 967.574 1655.48 973.807 1658.38C974.818 1662.75 975.053 1660.72 973.336 1664.64C969.178 1666.3 968.631 1666.63 964.248 1667.07C954.187 1666.52 931.309 1673.08 919.769 1673.87C877.832 1676.7 810.382 1678.19 771.094 1666.95L775.481 1659.47Z" fill="#2D2E2D"/>
<path d="M952.903 1658.53C960.608 1657.91 967.623 1655.93 973.813 1658.85C974.816 1663.27 975.05 1661.22 973.345 1665.18C969.216 1666.85 968.672 1667.19 964.321 1667.63C956.485 1666.34 954.116 1667.19 952.903 1658.53Z" fill="#3C3D3B"/>
<path d="M683.312 1650.07C671.448 1643.15 620.969 1636.41 604.724 1631.35C570.512 1620.7 536.132 1605.07 504.164 1590.32C487.373 1582.57 387.641 1526.28 384.748 1517.84C394.241 1522.53 404.071 1528.78 412.096 1535.69C414.24 1537.53 419.695 1539.12 423.015 1541.71L426.703 1539.42C423.867 1533.43 419.108 1536.36 415.452 1529.83C416.383 1529.8 468.357 1561.78 475.497 1565.32C524.646 1589.71 576.755 1608.85 627.88 1628.52C645.939 1635.46 666.989 1637.03 685.354 1643.93L683.312 1650.07Z" fill="#343531"/>
<path d="M850.279 52.142C887.584 51.2672 929.825 54.4876 966.403 60.3052C974.26 61.5551 983.463 57.5561 990.092 62.7278L989.657 68.2325C983.54 72.9754 958.661 63.5627 948.717 62.6953C922.614 60.4182 896.107 59.6785 869.956 58.635C838.675 58.1658 803.274 59.871 771.873 61.5738C757.227 62.368 743.877 72.0887 724.608 67.5005L725.059 66.7937C727.396 65.3357 769.441 54.9173 773.435 54.7946C799.18 54.0036 824.412 54.1581 850.279 52.142Z" fill="#676761"/>
<path d="M1525.75 398.058C1557.03 434.001 1598.65 525.321 1617.13 569.524L1616.08 570.571C1609.76 556.389 1576.37 482.138 1569.2 473.801C1565.16 475.757 1566.44 474.443 1564.57 478.473L1565.22 479.445C1572.78 490.84 1596.48 542.625 1602.55 557.512L1601.53 558.722C1587.7 527.21 1572.4 496.357 1555.66 466.265C1549.05 454.619 1531.82 428.123 1527.26 417.966C1524.68 409.002 1519.69 406.878 1521.41 399.872L1525.75 398.058Z" fill="#3C3D3B"/>
<path d="M176.08 436.122C162.494 460.46 148.536 485.377 135.767 510.143C132.962 515.584 124.132 540.793 120.167 544.746C120.147 538.54 143.688 489.184 149.117 481.532L149.601 480.867L146.755 478.225C143.033 481.927 115.246 534.274 111.893 542.122L111.386 543.325L111 541.36C126.445 508.183 151.604 460.691 172.769 431.115L176.08 436.122Z" fill="#3C3D3B"/>
<path d="M685.298 1643.87C697.197 1646 719.529 1649.21 728.74 1656.07L727.863 1658.32C722.907 1658.6 686.94 1651.58 683.288 1649.98L685.298 1643.87Z" fill="#676761"/>
<path d="M675.024 72.8798C686.272 70.4912 711.719 63.9211 721.509 67.5143C714.291 74.3834 687.169 76.6103 676.836 79.8913L675.024 72.8798Z" fill="#7F8178"/>
<path d="M770.832 1667.63C762.069 1665.89 746.727 1665.98 741.136 1658.86L743.552 1656.87C753.112 1655.1 765.742 1657.56 775.226 1659.71L770.832 1667.63Z" fill="#3C3D3B"/>
<defs>
<radialGradient id="paint0_radial_240_1388" cx="0" cy="0" r="1" gradientUnits="userSpaceOnUse" gradientTransform="translate(864 864) rotate(90) scale(864)">
<stop offset="0.793269" stop-color="#2D2D2D"/>
<stop offset="1"/>
</radialGradient>
</defs>
</svg>
